<?xml version="1.0" encoding="UTF-8"?>
<!DOCTYPE svg PUBLIC "-//W3C//DTD SVG 1.1//EN" "http://www.w3.org/Graphics/SVG/1.1/DTD/svg11.dtd">
<!-- Creator: CorelDRAW X7 -->
<svg xmlns="http://www.w3.org/2000/svg" xml:space="preserve" width="1024px" height="450px" version="1.1" style="shape-rendering:geometricPrecision; text-rendering:geometricPrecision; image-rendering:optimizeQuality; fill-rule:evenodd; clip-rule:evenodd"
viewBox="0 0 102400 45000"
 xmlns:xlink="http://www.w3.org/1999/xlink">
 <defs>
  <style type="text/css">
   <![CDATA[
    .fil2 {fill:#FEFEFE}
    .fil0 {fill:#2ECC71}
    .fil1 {fill:#FEFEFE;fill-rule:nonzero}
   ]]>
  </style>
 </defs>
 <g id="Layer_x0020_1">
  <metadata id="CorelCorpID_0Corel-Layer"/>
  <g id="_515266808">
   <rect class="fil0" x="16" y="24" width="102367" height="44952"/>
   <g>
    <g>
     <path class="fil1" d="M44321 22791l-382 -1359 -1883 0 -408 1359 -1723 0 2141 -6921 2245 0 2177 6921 -2167 0zm-1880 -2874l1107 0 -555 -2004 -552 2004z"/>
     <path class="fil1" d="M53263 22791l-1733 0 -1902 -3052c-245,-393 -486,-870 -724,-1437 112,446 167,825 167,1136l0 3353 -1722 0 0 -6921 2002 0 1614 2536c322,503 564,947 728,1330 -109,-592 -163,-1197 -163,-1816l0 -2050 1733 0 0 6921z"/>
     <path class="fil1" d="M54124 22791l0 -6921 2675 0c1164,0 2034,344 2612,1035 577,690 866,1487 866,2393 0,1034 -309,1875 -930,2523 -619,647 -1425,970 -2415,970l-2808 0zm2127 -1587l554 0c351,0 648,-172 888,-514 242,-342 364,-808 364,-1397 0,-505 -108,-941 -322,-1308 -215,-365 -526,-548 -930,-548l-554 0 0 3767z"/>
     <path class="fil1" d="M67291 22791l-2354 0 -1018 -2646 -654 0 0 2646 -2127 0 0 -6921 3614 0c797,0 1417,187 1858,561 441,373 660,866 660,1478 0,400 -81,753 -244,1059 -162,306 -491,575 -987,809l1252 3014zm-4026 -4119l908 0c266,0 481,-55 643,-168 163,-112 244,-277 244,-494 0,-445 -271,-666 -816,-666l-979 0 0 1328z"/>
     <path class="fil1" d="M71432 22895c-973,0 -1767,-323 -2381,-968 -614,-645 -920,-1508 -920,-2589 0,-1033 294,-1887 880,-2561 586,-673 1401,-1010 2442,-1010 963,0 1750,318 2357,952 607,635 910,1483 910,2543 0,1098 -306,1978 -919,2640 -612,663 -1400,993 -2369,993zm-8 -1567c359,0 619,-157 776,-470 157,-313 237,-886 237,-1717 0,-1206 -325,-1808 -974,-1808 -700,0 -1049,687 -1049,2062 0,1288 337,1933 1010,1933z"/>
     <polygon class="fil1" points="77708,15870 77708,22791 75580,22791 75580,15870 "/>
     <path class="fil1" d="M78568 22791l0 -6921 2676 0c1164,0 2033,344 2611,1035 578,690 866,1487 866,2393 0,1034 -309,1875 -930,2523 -619,647 -1425,970 -2414,970l-2809 0zm2127 -1587l554 0c351,0 648,-172 889,-514 242,-342 363,-808 363,-1397 0,-505 -107,-941 -322,-1308 -214,-365 -525,-548 -930,-548l-554 0 0 3767z"/>
     <g>
      <path class="fil1" d="M82028 28207c105,201 239,357 403,469 162,113 338,169 528,169 255,0 463,-81 623,-242 160,-161 239,-368 239,-621 0,-404 -356,-752 -1071,-1046l-10 -3c-385,-158 -657,-336 -817,-534 -162,-198 -242,-449 -242,-752 0,-415 138,-756 415,-1021 276,-267 634,-400 1074,-400 329,0 617,75 864,223 247,147 430,358 550,629l-315 211c-79,-223 -197,-395 -355,-515 -157,-121 -344,-181 -562,-181 -232,0 -421,74 -569,223 -148,150 -223,344 -223,586 0,190 61,352 184,486 121,133 349,271 684,414 527,227 875,444 1042,651 169,208 253,475 253,798 0,431 -149,785 -446,1064 -297,279 -673,419 -1129,419 -330,0 -613,-64 -852,-190 -239,-126 -447,-321 -623,-586l355 -251z"/>
      <polygon class="fil1" points="79143,29116 79143,24688 77889,24688 77889,24329 81276,24329 81276,24688 80023,24688 80023,29116 "/>
      <path class="fil1" d="M74271 29116l1966 -4882 2044 4882 -944 0 -499 -1275 -1649 0 -494 1275 -424 0zm1042 -1576l1393 0 -697 -1746 -696 1746z"/>
      <polygon class="fil1" points="72544,29116 72544,24688 71291,24688 71291,24329 74678,24329 74678,24688 73424,24688 73424,29116 "/>
      <path class="fil1" d="M68267 28207c105,201 239,357 403,469 162,113 338,169 528,169 255,0 463,-81 623,-242 160,-161 239,-368 239,-621 0,-404 -356,-752 -1071,-1046l-10 -3c-385,-158 -657,-336 -818,-534 -161,-198 -241,-449 -241,-752 0,-415 138,-756 415,-1021 276,-267 634,-400 1074,-400 329,0 617,75 864,223 247,147 430,358 550,629l-316 211c-78,-223 -196,-395 -354,-515 -157,-121 -344,-181 -562,-181 -232,0 -421,74 -569,223 -148,150 -223,344 -223,586 0,190 61,352 184,486 121,133 349,271 684,414 526,227 875,444 1042,651 169,208 253,475 253,798 0,431 -149,785 -446,1064 -297,279 -673,419 -1129,419 -330,0 -613,-64 -852,-190 -239,-126 -447,-321 -623,-586l355 -251z"/>
      <polygon class="fil1" points="63319,29116 63319,26800 61714,24329 62763,24329 63974,26295 65268,24329 65804,24329 64206,26674 64206,29116 "/>
      <path class="fil1" d="M58258 29116l0 -4787 1569 0c594,0 1044,118 1348,354 304,237 456,586 456,1047 0,344 -108,615 -324,813 -216,198 -524,308 -923,330l1269 2243 -995 0 -1285 -2426c503,-33 859,-127 1066,-281 208,-154 312,-393 312,-715 0,-356 -103,-621 -308,-796 -205,-174 -516,-261 -931,-261l-367 0 0 4479 -887 0z"/>
      <polygon class="fil1" points="54819,29116 54819,24329 57781,24329 57781,24688 55706,24688 55706,26440 57634,26440 57634,26800 55706,26800 55706,28757 57781,28757 57781,29116 "/>
      <polygon class="fil1" points="52226,29116 52226,24688 50973,24688 50973,24329 54360,24329 54360,24688 53106,24688 53106,29116 "/>
      <polygon class="fil1" points="48425,29116 48425,24688 47172,24688 47172,24329 50559,24329 50559,24688 49305,24688 49305,29116 "/>
      <path class="fil1" d="M43554 29116l1965 -4882 2045 4882 -945 0 -498 -1275 -1650 0 -493 1275 -424 0zm1042 -1576l1393 0 -698 -1746 -695 1746z"/>
      <path class="fil1" d="M41611 29116l-1693 0 0 -4787 1414 0c300,0 550,15 746,43 197,29 350,73 457,133 193,103 346,245 458,431 111,185 166,388 166,610 0,267 -71,489 -212,663 -142,176 -347,299 -617,368 323,86 570,236 741,451 171,215 256,484 256,806 0,434 -140,757 -421,967 -280,210 -713,315 -1295,315zm-806 -4479l0 1818 440 0c375,0 646,-73 816,-219 170,-145 255,-377 255,-697 0,-308 -95,-536 -281,-682 -188,-147 -476,-220 -864,-220l-366 0zm0 2119l0 2052 566 0c379,0 656,-73 830,-220 174,-148 261,-380 261,-697 0,-384 -101,-670 -304,-856 -203,-187 -512,-279 -926,-279l-427 0z"/>
     </g>
    </g>
    <g>
     <path class="fil2" d="M19003 11554l4486 0 0 -1724c0,-146 119,-266 265,-266l3766 0c146,0 265,120 265,266l0 1724 4486 0c729,0 1327,598 1327,1327l0 21228c0,730 -598,1327 -1327,1327l-13268 0c-729,0 -1326,-597 -1326,-1327l0 -21228c0,-729 597,-1327 1326,-1327zm818 1601l11632 0c356,0 646,291 646,647l0 19387c0,355 -290,646 -646,646l-11632 0c-355,0 -646,-291 -646,-646l0 -19387c0,-356 291,-647 646,-647z"/>
     <polygon class="fil2" points="19622,32036 22850,31368 25197,30882 25197,29708 28424,30376 31652,31044 28424,31712 26078,32198 26078,33372 22850,32704 "/>
     <polygon class="fil2" points="19622,28044 22850,27376 25197,26890 25197,25717 28424,26385 31652,27053 28424,27721 26078,28207 26078,29381 22850,28713 "/>
     <polygon class="fil2" points="19622,23991 22850,23323 25197,22837 25197,21663 28424,22331 31652,23000 28424,23668 26078,24153 26078,25327 22850,24659 "/>
     <polygon class="fil2" points="19622,19910 22850,19242 25197,18756 25197,17582 28424,18250 31652,18918 28424,19587 26078,20072 26078,21246 22850,20578 "/>
     <polygon class="fil2" points="19622,15893 22850,15225 25197,14739 25197,13565 28424,14233 31652,14901 28424,15569 26078,16055 26078,17229 22850,16561 "/>
    </g>
   </g>
  </g>
 </g>
</svg>
