<?xml version="1.0" encoding="UTF-8"?>
<!DOCTYPE svg PUBLIC "-//W3C//DTD SVG 1.1//EN" "http://www.w3.org/Graphics/SVG/1.1/DTD/svg11.dtd">
<!-- Creator: CorelDRAW X7 -->
<svg xmlns="http://www.w3.org/2000/svg" xml:space="preserve" width="144px" height="144px" version="1.1" style="shape-rendering:geometricPrecision; text-rendering:geometricPrecision; image-rendering:optimizeQuality; fill-rule:evenodd; clip-rule:evenodd"
viewBox="0 0 14400 14400"
 xmlns:xlink="http://www.w3.org/1999/xlink">
 <defs>
  <style type="text/css">
   <![CDATA[
    .fil2 {fill:#FEFEFE}
    .fil1 {fill:#12B355}
    .fil0 {fill:#2ECC71}
   ]]>
  </style>
 </defs>
 <g id="Layer_x0020_1">
  <metadata id="CorelCorpID_0Corel-Layer"/>
  <g id="_325521120">
   <rect class="fil0" width="14400" height="14400" rx="960" ry="785"/>
   <path class="fil1" d="M14400 9439l0 4001c0,528 -430,960 -956,960l-8510 0 -1068 -1858 16 23 17 22 18 20 19 20 20 19 20 18 22 18 22 16 24 15 24 13 24 13 26 12 26 10 26 9 27 8 28 6 28 5 29 4 28 2 30 1 591 0 -470 -816 -14 -23 -11 -24 -10 -26 -7 -27 -4 -28 -1 -28 0 -8387 1 -29 4 -27 7 -27 10 -26 11 -24 14 -23 16 -22 18 -20 20 -18 22 -16 23 -14 24 -12 26 -9 26 -7 28 -4 28 -2 3833 0 -399 -692 0 -746 -2 -23 -7 -22 853 1483 738 0 28 2 28 4 26 7 26 9 24 12 23 14 22 16 19 18 18 20 16 22 14 23 680 1181 0 -1446 -1 -30 -2 -29 -4 -28 -5 -28 -6 -28 -8 -27 -9 -27 -10 -26 -11 -25 3824 6648z"/>
   <path class="fil2" d="M4340 2465l1934 0 0 -746c0,-63 51,-115 114,-115l1624 0c63,0 114,52 114,115l0 746 1934 0c315,0 572,258 572,574l0 9183c0,316 -257,574 -572,574l-5720 0c-315,0 -572,-258 -572,-574l0 -9183c0,-316 257,-574 572,-574zm352 692l5016 0c153,0 278,126 278,280l0 8387c0,154 -125,280 -278,280l-5016 0c-153,0 -278,-126 -278,-280l0 -8387c0,-154 125,-280 278,-280z"/>
   <polygon class="fil2" points="4607,11325 5998,11036 7010,10826 7010,10318 8402,10607 9793,10896 8402,11185 7390,11395 7390,11903 5998,11614 "/>
   <polygon class="fil2" points="4607,9599 5998,9309 7010,9099 7010,8591 8402,8881 9793,9170 8402,9459 7390,9669 7390,10177 5998,9888 "/>
   <polygon class="fil2" points="4607,7845 5998,7556 7010,7346 7010,6838 8402,7127 9793,7416 8402,7705 7390,7915 7390,8423 5998,8134 "/>
   <polygon class="fil2" points="4607,6080 5998,5791 7010,5580 7010,5073 8402,5362 9793,5651 8402,5940 7390,6150 7390,6658 5998,6369 "/>
   <polygon class="fil2" points="4607,4342 5998,4053 7010,3843 7010,3335 8402,3624 9793,3913 8402,4202 7390,4412 7390,4920 5998,4631 "/>
  </g>
 </g>
</svg>
