<?xml version="1.0" encoding="UTF-8"?>
<!DOCTYPE svg PUBLIC "-//W3C//DTD SVG 1.1//EN" "http://www.w3.org/Graphics/SVG/1.1/DTD/svg11.dtd">
<!-- Creator: CorelDRAW X7 -->
<svg xmlns="http://www.w3.org/2000/svg" xml:space="preserve" width="256px" height="256px" version="1.1" style="shape-rendering:geometricPrecision; text-rendering:geometricPrecision; image-rendering:optimizeQuality; fill-rule:evenodd; clip-rule:evenodd"
viewBox="0 0 25600 25600"
 xmlns:xlink="http://www.w3.org/1999/xlink">
 <defs>
  <style type="text/css">
   <![CDATA[
    .fil2 {fill:#FEFEFE}
    .fil1 {fill:#12B355}
    .fil0 {fill:#2ECC71}
   ]]>
  </style>
 </defs>
 <g id="Layer_x0020_1">
  <metadata id="CorelCorpID_0Corel-Layer"/>
  <g id="_325518384">
   <rect class="fil0" width="25600" height="25600" rx="1706" ry="1396"/>
   <path class="fil1" d="M25600 16780l0 7114c0,938 -765,1706 -1700,1706l-15128 0 -1899 -3302 28 40 30 38 32 37 34 36 35 33 37 32 39 31 39 28 42 27 42 25 44 22 45 21 47 18 47 16 48 14 49 12 50 9 51 6 51 4 52 1 1051 0 -835 -1450 -24 -41 -21 -44 -17 -45 -12 -48 -8 -49 -3 -51 0 -14910 3 -50 8 -50 12 -47 17 -46 21 -43 24 -41 29 -38 32 -36 35 -32 38 -29 41 -25 44 -21 45 -16 47 -13 49 -7 51 -3 6813 0 -709 -1231 0 -1326 -4 -41 -11 -39 1516 2637 1311 0 50 3 49 7 48 13 45 16 44 21 40 25 39 29 35 32 32 36 28 38 25 41 1208 2100 0 -2571 -1 -53 -4 -52 -6 -50 -9 -51 -12 -49 -13 -48 -16 -48 -19 -46 -20 -45 6799 11819z"/>
   <path class="fil2" d="M7716 4382l3438 0 0 -1326c0,-113 91,-204 203,-204l2887 0c111,0 203,91 203,204l0 1326 3438 0c559,0 1017,459 1017,1020l0 16326c0,561 -458,1020 -1017,1020l-10169 0c-560,0 -1017,-459 -1017,-1020l0 -16326c0,-561 457,-1020 1017,-1020zm626 1231l8916 0c273,0 496,224 496,497l0 14910c0,274 -223,497 -496,497l-8916 0c-272,0 -495,-223 -495,-497l0 -14910c0,-273 223,-497 495,-497z"/>
   <polygon class="fil2" points="8190,20134 10663,19620 12462,19246 12462,18344 14936,18857 17410,19371 14936,19885 13137,20259 13137,21161 10663,20648 "/>
   <polygon class="fil2" points="8190,17064 10663,16550 12462,16177 12462,15274 14936,15787 17410,16301 14936,16815 13137,17189 13137,18092 10663,17578 "/>
   <polygon class="fil2" points="8190,13947 10663,13433 12462,13059 12462,12157 14936,12670 17410,13184 14936,13698 13137,14072 13137,14974 10663,14461 "/>
   <polygon class="fil2" points="8190,10808 10663,10294 12462,9921 12462,9018 14936,9532 17410,10046 14936,10559 13137,10933 13137,11836 10663,11322 "/>
   <polygon class="fil2" points="8190,7719 10663,7205 12462,6831 12462,5928 14936,6442 17410,6956 14936,7470 13137,7843 13137,8746 10663,8232 "/>
  </g>
 </g>
</svg>
