<?xml version="1.0" encoding="UTF-8"?>
<!DOCTYPE svg PUBLIC "-//W3C//DTD SVG 1.1//EN" "http://www.w3.org/Graphics/SVG/1.1/DTD/svg11.dtd">
<!-- Creator: CorelDRAW X7 -->
<svg xmlns="http://www.w3.org/2000/svg" xml:space="preserve" width="512px" height="225px" version="1.1" style="shape-rendering:geometricPrecision; text-rendering:geometricPrecision; image-rendering:optimizeQuality; fill-rule:evenodd; clip-rule:evenodd"
viewBox="0 0 51200 22500"
 xmlns:xlink="http://www.w3.org/1999/xlink">
 <defs>
  <style type="text/css">
   <![CDATA[
    .fil2 {fill:#FEFEFE}
    .fil0 {fill:#2ECC71}
    .fil1 {fill:#FEFEFE;fill-rule:nonzero}
   ]]>
  </style>
 </defs>
 <g id="Layer_x0020_1">
  <metadata id="CorelCorpID_0Corel-Layer"/>
  <g id="_325504680">
   <rect class="fil0" y="8" width="51200" height="22483"/>
   <g>
    <g>
     <path class="fil1" d="M22160 11396l-192 -680 -942 0 -204 680 -861 0 1071 -3462 1122 0 1089 3462 -1083 0zm-941 -1438l554 0 -278 -1003 -276 1003z"/>
     <path class="fil1" d="M26632 11396l-867 0 -951 -1527c-123,-196 -243,-435 -363,-719 57,223 84,413 84,568l0 1678 -861 0 0 -3462 1001 0 807 1268c161,252 282,474 365,665 -55,-296 -82,-598 -82,-908l0 -1025 867 0 0 3462z"/>
     <path class="fil1" d="M27062 11396l0 -3462 1339 0c582,0 1017,172 1306,517 288,345 433,744 433,1197 0,518 -155,938 -465,1262 -310,324 -713,486 -1208,486l-1405 0zm1064 -794l277 0c176,0 325,-86 445,-257 121,-172 181,-404 181,-699 0,-253 -53,-471 -161,-654 -107,-183 -262,-274 -465,-274l-277 0 0 1884z"/>
     <path class="fil1" d="M33648 11396l-1177 0 -510 -1324 -327 0 0 1324 -1063 0 0 -3462 1807 0c399,0 709,93 929,280 221,187 331,434 331,740 0,200 -41,376 -122,529 -82,153 -246,288 -494,405l626 1508zm-2014 -2061l455 0c133,0 240,-27 321,-84 82,-56 122,-138 122,-247 0,-222 -135,-333 -408,-333l-490 0 0 664z"/>
     <path class="fil1" d="M35719 11448c-487,0 -884,-162 -1191,-485 -307,-323 -460,-754 -460,-1295 0,-516 147,-943 440,-1281 294,-336 701,-505 1222,-505 482,0 875,159 1179,477 303,317 455,741 455,1271 0,549 -153,990 -460,1321 -306,331 -700,497 -1185,497zm-4 -784c180,0 310,-79 388,-235 79,-157 119,-443 119,-859 0,-603 -163,-904 -487,-904 -350,0 -525,343 -525,1031 0,644 169,967 505,967z"/>
     <polygon class="fil1" points="38858,7934 38858,11396 37794,11396 37794,7934 "/>
     <path class="fil1" d="M39289 11396l0 -3462 1338 0c582,0 1017,172 1306,517 289,345 433,744 433,1197 0,518 -155,938 -465,1262 -310,324 -713,486 -1208,486l-1404 0zm1063 -794l277 0c176,0 325,-86 445,-257 121,-172 182,-404 182,-699 0,-253 -54,-471 -161,-654 -108,-183 -263,-274 -466,-274l-277 0 0 1884z"/>
     <g>
      <path class="fil1" d="M41019 14104c52,101 120,179 201,235 82,56 170,84 265,84 127,0 231,-40 311,-121 80,-80 120,-184 120,-310 0,-202 -178,-376 -536,-523l-5 -2c-192,-79 -329,-168 -409,-267 -80,-99 -121,-224 -121,-376 0,-208 69,-378 208,-511 138,-133 317,-200 537,-200 165,0 309,38 432,112 124,74 215,179 275,314l-157 106c-39,-112 -99,-198 -178,-258 -78,-60 -172,-90 -281,-90 -116,0 -211,37 -285,111 -73,75 -111,172 -111,293 0,96 31,176 92,243 60,67 175,136 342,208 264,113 438,221 522,325 84,104 126,238 126,399 0,216 -75,393 -223,532 -148,140 -337,210 -565,210 -165,0 -307,-32 -426,-95 -119,-63 -223,-161 -311,-293l177 -126z"/>
      <polygon class="fil1" points="39576,14559 39576,12344 38949,12344 38949,12165 40643,12165 40643,12344 40016,12344 40016,14559 "/>
      <path class="fil1" d="M37139 14559l984 -2442 1022 2442 -472 0 -250 -638 -825 0 -247 638 -212 0zm522 -788l696 0 -349 -874 -347 874z"/>
      <polygon class="fil1" points="36276,14559 36276,12344 35649,12344 35649,12165 37343,12165 37343,12344 36716,12344 36716,14559 "/>
      <path class="fil1" d="M34136 14104c53,101 120,179 202,235 81,56 169,84 264,84 127,0 231,-40 311,-121 81,-80 120,-184 120,-310 0,-202 -178,-376 -536,-523l-5 -2c-192,-79 -329,-168 -408,-267 -81,-99 -122,-224 -122,-376 0,-208 70,-378 208,-511 138,-133 317,-200 538,-200 164,0 308,38 432,112 123,74 215,179 275,314l-158 106c-39,-112 -99,-198 -177,-258 -79,-60 -173,-90 -281,-90 -117,0 -211,37 -285,111 -74,75 -111,172 -111,293 0,96 30,176 91,243 61,67 175,136 342,208 264,113 438,221 522,325 84,104 126,238 126,399 0,216 -74,393 -223,532 -148,140 -337,210 -564,210 -165,0 -307,-32 -427,-95 -119,-63 -223,-161 -311,-293l177 -126z"/>
      <polygon class="fil1" points="31662,14559 31662,13400 30859,12165 31384,12165 31989,13148 32636,12165 32905,12165 32105,13337 32105,14559 "/>
      <path class="fil1" d="M29130 14559l0 -2394 785 0c297,0 522,59 674,177 152,118 228,293 228,524 0,171 -54,307 -162,406 -108,99 -262,154 -461,165l634 1122 -497 0 -643 -1214c251,-16 429,-63 533,-140 104,-77 156,-196 156,-358 0,-178 -51,-310 -154,-398 -103,-87 -258,-130 -466,-130l-183 0 0 2240 -444 0z"/>
      <polygon class="fil1" points="27410,14559 27410,12165 28892,12165 28892,12344 27854,12344 27854,13221 28818,13221 28818,13400 27854,13400 27854,14379 28892,14379 28892,14559 "/>
      <polygon class="fil1" points="26113,14559 26113,12344 25486,12344 25486,12165 27180,12165 27180,12344 26554,12344 26554,14559 "/>
      <polygon class="fil1" points="24212,14559 24212,12344 23585,12344 23585,12165 25279,12165 25279,12344 24652,12344 24652,14559 "/>
      <path class="fil1" d="M21776 14559l983 -2442 1022 2442 -472 0 -249 -638 -826 0 -246 638 -212 0zm521 -788l697 0 -349 -874 -348 874z"/>
      <path class="fil1" d="M20804 14559l-847 0 0 -2394 707 0c151,0 275,7 374,21 98,15 175,37 228,67 97,51 173,123 229,215 55,93 83,194 83,305 0,134 -35,245 -106,332 -71,88 -173,149 -308,184 161,43 284,118 370,226 86,107 128,242 128,403 0,217 -70,378 -211,483 -139,106 -356,158 -647,158zm-403 -2240l0 909 220 0c188,0 323,-37 408,-109 85,-73 127,-189 127,-349 0,-154 -47,-268 -140,-341 -94,-74 -238,-110 -432,-110l-183 0zm0 1059l0 1027 283 0c189,0 328,-37 415,-110 87,-74 131,-190 131,-349 0,-192 -51,-335 -153,-428 -101,-93 -256,-140 -463,-140l-213 0z"/>
     </g>
    </g>
    <g>
     <path class="fil2" d="M9497 5775l2243 0 0 -862c0,-73 60,-133 133,-133l1883 0c73,0 133,60 133,133l0 862 2243 0c365,0 664,299 664,664l0 10617c0,365 -299,664 -664,664l-6635 0c-366,0 -664,-299 -664,-664l0 -10617c0,-365 298,-664 664,-664zm408 801l5818 0c178,0 324,146 324,323l0 9697c0,178 -146,323 -324,323l-5818 0c-177,0 -323,-145 -323,-323l0 -9697c0,-177 146,-323 323,-323z"/>
     <polygon class="fil2" points="9806,16019 11420,15685 12594,15442 12594,14855 14208,15189 15823,15523 14208,15858 13035,16101 13035,16688 11420,16354 "/>
     <polygon class="fil2" points="9806,14023 11420,13689 12594,13446 12594,12859 14208,13193 15823,13527 14208,13861 13035,14104 13035,14691 11420,14357 "/>
     <polygon class="fil2" points="9806,11996 11420,11662 12594,11419 12594,10831 14208,11166 15823,11500 14208,11834 13035,12077 13035,12664 11420,12330 "/>
     <polygon class="fil2" points="9806,9954 11420,9620 12594,9377 12594,8790 14208,9124 15823,9459 14208,9793 13035,10036 13035,10623 11420,10289 "/>
     <polygon class="fil2" points="9806,7945 11420,7611 12594,7368 12594,6781 14208,7115 15823,7449 14208,7783 13035,8026 13035,8614 11420,8279 "/>
    </g>
   </g>
  </g>
 </g>
</svg>
