<?xml version="1.0" encoding="UTF-8"?>
<!DOCTYPE svg PUBLIC "-//W3C//DTD SVG 1.1//EN" "http://www.w3.org/Graphics/SVG/1.1/DTD/svg11.dtd">
<!-- Creator: CorelDRAW X7 -->
<svg xmlns="http://www.w3.org/2000/svg" xml:space="preserve" width="512px" height="225px" version="1.1" style="shape-rendering:geometricPrecision; text-rendering:geometricPrecision; image-rendering:optimizeQuality; fill-rule:evenodd; clip-rule:evenodd"
viewBox="0 0 51200 22500"
 xmlns:xlink="http://www.w3.org/1999/xlink">
 <defs>
  <style type="text/css">
   <![CDATA[
    .fil2 {fill:#2ECC71}
    .fil0 {fill:white}
    .fil1 {fill:#2ECC71;fill-rule:nonzero}
   ]]>
  </style>
 </defs>
 <g id="Layer_x0020_1">
  <metadata id="CorelCorpID_0Corel-Layer"/>
  <g id="_515526872">
   <rect class="fil0" width="51200" height="22500"/>
   <g>
    <g>
     <path class="fil1" d="M22160 11396l-192 -681 -942 0 -204 681 -861 0 1071 -3464 1122 0 1089 3464 -1083 0zm-941 -1439l554 0 -278 -1003 -276 1003z"/>
     <path class="fil1" d="M26632 11396l-867 0 -951 -1528c-123,-197 -243,-435 -363,-719 57,223 84,413 84,568l0 1679 -861 0 0 -3464 1001 0 807 1269c161,251 282,474 365,665 -55,-296 -82,-599 -82,-909l0 -1025 867 0 0 3464z"/>
     <path class="fil1" d="M27062 11396l0 -3464 1339 0c582,0 1017,172 1306,517 288,346 433,745 433,1198 0,518 -155,939 -465,1263 -310,324 -713,486 -1208,486l-1405 0zm1064 -795l277 0c176,0 324,-86 445,-257 121,-171 181,-404 181,-699 0,-253 -53,-471 -161,-655 -107,-182 -262,-274 -465,-274l-277 0 0 1885z"/>
     <path class="fil1" d="M33648 11396l-1177 0 -510 -1325 -327 0 0 1325 -1064 0 0 -3464 1808 0c399,0 709,93 929,280 221,187 331,434 331,740 0,200 -41,377 -122,530 -82,153 -246,288 -494,405l626 1509zm-2014 -2062l455 0c133,0 240,-28 321,-84 82,-56 122,-139 122,-248 0,-222 -136,-333 -408,-333l-490 0 0 665z"/>
     <path class="fil1" d="M35719 11448c-487,0 -884,-162 -1191,-485 -307,-323 -460,-755 -460,-1296 0,-517 147,-944 440,-1282 294,-337 701,-505 1222,-505 482,0 875,159 1179,477 303,317 455,741 455,1272 0,550 -153,990 -460,1322 -306,331 -700,497 -1185,497zm-4 -785c180,0 310,-78 388,-235 79,-157 119,-443 119,-860 0,-603 -163,-904 -487,-904 -350,0 -525,343 -525,1032 0,644 168,967 505,967z"/>
     <polygon class="fil1" points="38858,7932 38858,11396 37794,11396 37794,7932 "/>
     <path class="fil1" d="M39289 11396l0 -3464 1338 0c582,0 1017,172 1306,517 289,346 433,745 433,1198 0,518 -155,939 -465,1263 -310,324 -713,486 -1208,486l-1404 0zm1063 -795l277 0c176,0 325,-86 445,-257 121,-171 181,-404 181,-699 0,-253 -53,-471 -160,-655 -108,-182 -263,-274 -466,-274l-277 0 0 1885z"/>
     <g>
      <path class="fil1" d="M41019 14107c52,100 120,178 201,234 82,57 170,85 264,85 128,0 232,-41 312,-121 80,-81 120,-184 120,-311 0,-202 -179,-377 -536,-523l-5 -2c-192,-79 -329,-169 -409,-268 -80,-99 -121,-224 -121,-376 0,-208 69,-378 208,-511 138,-133 317,-200 537,-200 165,0 309,37 432,111 124,74 215,179 275,315l-157 106c-39,-112 -99,-198 -178,-258 -78,-61 -172,-91 -281,-91 -116,0 -211,38 -285,112 -73,75 -111,172 -111,293 0,96 31,176 92,244 60,66 175,135 342,207 264,114 438,222 521,326 85,104 127,237 127,399 0,216 -75,393 -223,533 -149,140 -337,209 -565,209 -165,0 -307,-32 -426,-95 -120,-62 -223,-160 -311,-293l177 -125z"/>
      <polygon class="fil1" points="39576,14562 39576,12345 38949,12345 38949,12165 40643,12165 40643,12345 40016,12345 40016,14562 "/>
      <path class="fil1" d="M37139 14562l984 -2444 1022 2444 -472 0 -250 -639 -825 0 -247 639 -212 0zm522 -789l696 0 -349 -874 -347 874z"/>
      <polygon class="fil1" points="36276,14562 36276,12345 35649,12345 35649,12165 37343,12165 37343,12345 36716,12345 36716,14562 "/>
      <path class="fil1" d="M34136 14107c53,100 120,178 202,234 81,57 169,85 264,85 127,0 231,-41 311,-121 80,-81 120,-184 120,-311 0,-202 -178,-377 -536,-523l-5 -2c-192,-79 -329,-169 -408,-268 -81,-99 -122,-224 -122,-376 0,-208 70,-378 208,-511 138,-133 317,-200 538,-200 164,0 308,37 432,111 123,74 215,179 275,315l-158 106c-39,-112 -99,-198 -177,-258 -79,-61 -173,-91 -281,-91 -117,0 -211,38 -285,112 -74,75 -111,172 -111,293 0,96 30,176 91,244 61,66 175,135 342,207 264,114 438,222 522,326 84,104 126,237 126,399 0,216 -74,393 -223,533 -148,140 -337,209 -565,209 -165,0 -306,-32 -426,-95 -119,-62 -223,-160 -311,-293l177 -125z"/>
      <polygon class="fil1" points="31662,14562 31662,13402 30859,12165 31384,12165 31989,13149 32636,12165 32905,12165 32105,13339 32105,14562 "/>
      <path class="fil1" d="M29130 14562l0 -2397 785 0c297,0 522,60 674,178 152,118 228,293 228,524 0,172 -54,307 -162,407 -108,99 -262,154 -461,165l634 1123 -497 0 -643 -1215c251,-17 429,-64 533,-141 104,-77 156,-196 156,-357 0,-178 -51,-311 -154,-399 -103,-87 -258,-130 -466,-130l-183 0 0 2242 -444 0z"/>
      <polygon class="fil1" points="27410,14562 27410,12165 28892,12165 28892,12345 27854,12345 27854,13222 28818,13222 28818,13402 27854,13402 27854,14382 28892,14382 28892,14562 "/>
      <polygon class="fil1" points="26113,14562 26113,12345 25486,12345 25486,12165 27180,12165 27180,12345 26554,12345 26554,14562 "/>
      <polygon class="fil1" points="24212,14562 24212,12345 23585,12345 23585,12165 25279,12165 25279,12345 24652,12345 24652,14562 "/>
      <path class="fil1" d="M21776 14562l983 -2444 1022 2444 -472 0 -249 -639 -826 0 -246 639 -212 0zm521 -789l697 0 -349 -874 -348 874z"/>
      <path class="fil1" d="M20804 14562l-847 0 0 -2397 707 0c151,0 275,8 374,22 98,14 175,36 228,66 97,52 173,123 229,216 55,93 83,194 83,305 0,134 -35,245 -106,333 -71,88 -173,149 -308,184 161,43 284,118 370,225 86,108 128,243 128,404 0,217 -70,379 -211,484 -139,105 -356,158 -647,158zm-403 -2242l0 909 220 0c188,0 323,-36 408,-109 85,-73 127,-189 127,-349 0,-154 -47,-268 -140,-341 -94,-74 -238,-110 -432,-110l-183 0zm0 1060l0 1027 283 0c189,0 328,-36 415,-110 87,-74 131,-190 131,-349 0,-192 -51,-335 -153,-428 -101,-94 -256,-140 -463,-140l-213 0z"/>
     </g>
    </g>
    <g>
     <path class="fil2" d="M9497 5771l2243 0 0 -863c0,-73 60,-133 133,-133l1883 0c73,0 133,60 133,133l0 863 2243 0c365,0 664,299 664,664l0 10626c0,365 -299,664 -664,664l-6635 0c-365,0 -664,-299 -664,-664l0 -10626c0,-365 299,-664 664,-664zm408 802l5818 0c178,0 324,145 324,323l0 9704c0,178 -146,323 -324,323l-5818 0c-177,0 -323,-145 -323,-323l0 -9704c0,-178 146,-323 323,-323z"/>
     <polygon class="fil2" points="9806,16023 11420,15689 12594,15445 12594,14858 14208,15192 15823,15527 14208,15861 13035,16104 13035,16692 11420,16357 "/>
     <polygon class="fil2" points="9806,14025 11420,13691 12594,13447 12594,12860 14208,13194 15823,13529 14208,13863 13035,14106 13035,14694 11420,14359 "/>
     <polygon class="fil2" points="9806,11996 11420,11662 12594,11419 12594,10831 14208,11166 15823,11500 14208,11834 13035,12078 13035,12665 11420,12331 "/>
     <polygon class="fil2" points="9806,9954 11420,9619 12594,9376 12594,8788 14208,9123 15823,9457 14208,9792 13035,10035 13035,10622 11420,10288 "/>
     <polygon class="fil2" points="9806,7943 11420,7608 12594,7365 12594,6778 14208,7112 15823,7446 14208,7781 13035,8024 13035,8612 11420,8277 "/>
    </g>
   </g>
  </g>
 </g>
</svg>
