<?xml version="1.0" encoding="UTF-8"?>
<!DOCTYPE svg PUBLIC "-//W3C//DTD SVG 1.1//EN" "http://www.w3.org/Graphics/SVG/1.1/DTD/svg11.dtd">
<!-- Creator: CorelDRAW X7 -->
<svg xmlns="http://www.w3.org/2000/svg" xml:space="preserve" width="512px" height="198px" version="1.1" style="shape-rendering:geometricPrecision; text-rendering:geometricPrecision; image-rendering:optimizeQuality; fill-rule:evenodd; clip-rule:evenodd"
viewBox="0 0 51200 19800"
 xmlns:xlink="http://www.w3.org/1999/xlink">
 <defs>
  <style type="text/css">
   <![CDATA[
    .fil1 {fill:#FEFEFE}
    .fil0 {fill:#FEFEFE;fill-rule:nonzero}
   ]]>
  </style>
 </defs>
 <g id="Layer_x0020_1">
  <metadata id="CorelCorpID_0Corel-Layer"/>
  <g id="_337374320">
   <g>
    <path class="fil0" d="M20347 10123l-292 -1039 -1438 0 -312 1039 -1315 0 1635 -5290 1714 0 1663 5290 -1655 0zm-1435 -2197l845 0 -424 -1532 -421 1532z"/>
    <path class="fil0" d="M27176 10123l-1324 0 -1452 -2333c-188,-300 -371,-665 -554,-1098 86,341 128,630 128,868l0 2563 -1315 0 0 -5290 1529 0 1232 1938c246,384 431,724 556,1016 -83,-452 -124,-914 -124,-1388l0 -1566 1324 0 0 5290z"/>
    <path class="fil0" d="M27833 10123l0 -5290 2043 0c889,0 1553,263 1994,791 441,527 662,1136 662,1829 0,790 -237,1432 -711,1928 -473,494 -1088,742 -1843,742l-2145 0zm1624 -1214l423 0c268,0 495,-131 679,-392 185,-262 277,-618 277,-1068 0,-386 -82,-719 -246,-999 -163,-279 -401,-419 -710,-419l-423 0 0 2878z"/>
    <path class="fil0" d="M37888 10123l-1797 0 -778 -2023 -500 0 0 2023 -1624 0 0 -5290 2760 0c609,0 1082,143 1419,429 336,285 504,662 504,1130 0,305 -62,575 -186,808 -124,234 -375,440 -754,619l956 2304zm-3075 -3149l694 0c203,0 367,-42 491,-128 124,-86 186,-211 186,-378 0,-339 -207,-509 -623,-509l-748 0 0 1015z"/>
    <path class="fil0" d="M41050 10202c-743,0 -1349,-247 -1818,-740 -469,-493 -703,-1153 -703,-1979 0,-789 225,-1442 672,-1957 448,-514 1070,-772 1865,-772 736,0 1337,243 1800,728 464,485 695,1133 695,1943 0,839 -234,1512 -701,2018 -468,506 -1070,759 -1810,759zm-6 -1198c275,0 473,-120 593,-359 120,-239 181,-677 181,-1312 0,-922 -249,-1382 -744,-1382 -535,0 -801,525 -801,1576 0,984 257,1477 771,1477z"/>
    <polygon class="fil0" points="45843,4833 45843,10123 44218,10123 44218,4833 "/>
    <path class="fil0" d="M46500 10123l0 -5290 2043 0c889,0 1553,263 1994,791 441,527 662,1136 662,1829 0,790 -237,1432 -711,1928 -473,494 -1088,742 -1843,742l-2145 0zm1624 -1214l423 0c268,0 495,-131 679,-392 185,-262 277,-618 277,-1068 0,-386 -82,-719 -246,-999 -163,-279 -401,-419 -710,-419l-423 0 0 2878z"/>
    <g>
     <path class="fil0" d="M49142 14262c80,153 183,272 308,358 124,86 258,129 403,129 195,0 353,-62 476,-185 122,-123 182,-281 182,-474 0,-309 -272,-576 -818,-800l-7 -2c-294,-121 -502,-257 -625,-409 -123,-151 -184,-342 -184,-574 0,-317 105,-578 317,-780 211,-204 484,-306 820,-306 251,0 471,57 660,170 188,113 328,274 420,481l-241 162c-60,-171 -150,-303 -271,-395 -120,-92 -263,-138 -429,-138 -177,0 -322,57 -435,171 -113,114 -169,262 -169,447 0,146 46,269 139,372 93,102 267,207 523,317 402,173 668,339 796,497 129,159 193,363 193,610 0,329 -114,600 -341,813 -226,213 -514,320 -862,320 -252,0 -468,-49 -650,-145 -183,-96 -342,-245 -476,-448l271 -191z"/>
     <polygon class="fil0" points="46939,14956 46939,11572 45981,11572 45981,11298 48568,11298 48568,11572 47611,11572 47611,14956 "/>
     <path class="fil0" d="M43218 14956l1502 -3731 1561 3731 -722 0 -380 -975 -1260 0 -377 975 -324 0zm796 -1204l1064 0 -533 -1335 -531 1335z"/>
     <polygon class="fil0" points="41900,14956 41900,11572 40942,11572 40942,11298 43529,11298 43529,11572 42572,11572 42572,14956 "/>
     <path class="fil0" d="M38633 14262c80,153 183,272 308,358 124,86 258,129 403,129 195,0 354,-62 476,-185 122,-123 183,-281 183,-474 0,-309 -273,-576 -819,-800l-7 -2c-294,-121 -502,-257 -624,-409 -123,-151 -185,-342 -185,-574 0,-317 105,-578 317,-780 211,-204 484,-306 820,-306 252,0 472,57 660,170 189,113 329,274 420,481l-241 162c-59,-171 -150,-303 -270,-395 -121,-92 -264,-138 -430,-138 -177,0 -322,57 -434,171 -113,114 -170,262 -170,447 0,146 46,269 140,372 92,102 267,207 522,317 402,173 668,339 796,497 129,159 193,363 193,610 0,329 -114,600 -340,813 -227,213 -514,320 -862,320 -252,0 -469,-49 -651,-145 -183,-96 -341,-245 -476,-448l271 -191z"/>
     <polygon class="fil0" points="34855,14956 34855,13186 33629,11298 34430,11298 35355,12800 36343,11298 36753,11298 35532,13089 35532,14956 "/>
     <path class="fil0" d="M30990 14956l0 -3658 1198 0c454,0 797,90 1029,270 233,182 348,448 348,801 0,262 -82,469 -247,621 -165,151 -400,235 -704,252l968 1714 -759 0 -982 -1854c385,-26 656,-97 815,-215 158,-118 238,-300 238,-546 0,-272 -79,-475 -236,-608 -156,-134 -393,-200 -711,-200l-280 0 0 3423 -677 0z"/>
     <polygon class="fil0" points="28364,14956 28364,11298 30625,11298 30625,11572 29041,11572 29041,12911 30514,12911 30514,13186 29041,13186 29041,14682 30625,14682 30625,14956 "/>
     <polygon class="fil0" points="26384,14956 26384,11572 25426,11572 25426,11298 28013,11298 28013,11572 27056,11572 27056,14956 "/>
     <polygon class="fil0" points="23481,14956 23481,11572 22524,11572 22524,11298 25110,11298 25110,11572 24153,11572 24153,14956 "/>
     <path class="fil0" d="M19761 14956l1501 -3731 1561 3731 -721 0 -381 -975 -1260 0 -376 975 -324 0zm796 -1204l1063 0 -532 -1335 -531 1335z"/>
     <path class="fil0" d="M18277 14956l-1292 0 0 -3658 1079 0c230,0 420,11 570,32 151,23 267,56 349,102 148,79 264,188 349,330 85,141 127,296 127,466 0,204 -54,373 -161,507 -109,134 -265,228 -471,281 246,65 434,180 565,344 131,165 196,370 196,617 0,331 -107,578 -322,738 -214,161 -544,241 -989,241zm-615 -3423l0 1389 336 0c286,0 494,-56 623,-167 130,-111 194,-288 194,-533 0,-235 -72,-409 -214,-521 -143,-112 -363,-168 -660,-168l-279 0zm0 1619l0 1569 432 0c289,0 501,-56 634,-168 133,-113 199,-291 199,-533 0,-294 -77,-512 -232,-654 -155,-143 -391,-214 -707,-214l-326 0z"/>
    </g>
   </g>
   <g>
    <path class="fil1" d="M1013 1535l3425 0 0 -1318c0,-112 91,-203 203,-203l2876 0c111,0 202,91 202,203l0 1318 3426 0c557,0 1013,456 1013,1014l0 16223c0,557 -456,1014 -1013,1014l-10132 0c-557,0 -1013,-457 -1013,-1014l0 -16223c0,-558 456,-1014 1013,-1014zm624 1223l8883 0c272,0 494,223 494,494l0 14816c0,272 -222,494 -494,494l-8883 0c-271,0 -493,-222 -493,-494l0 -14816c0,-271 222,-494 493,-494z"/>
    <polygon class="fil1" points="1486,17187 3950,16677 5743,16306 5743,15408 8207,15919 10672,16430 8207,16940 6415,17311 6415,18209 3950,17698 "/>
    <polygon class="fil1" points="1486,14137 3950,13626 5743,13255 5743,12358 8207,12869 10672,13379 8207,13890 6415,14261 6415,15158 3950,14648 "/>
    <polygon class="fil1" points="1486,11039 3950,10529 5743,10158 5743,9260 8207,9771 10672,10282 8207,10792 6415,11164 6415,12061 3950,11550 "/>
    <polygon class="fil1" points="1486,7920 3950,7410 5743,7039 5743,6142 8207,6652 10672,7163 8207,7673 6415,8045 6415,8942 3950,8431 "/>
    <polygon class="fil1" points="1486,4851 3950,4340 5743,3969 5743,3072 8207,3582 10672,4093 8207,4603 6415,4975 6415,5872 3950,5361 "/>
   </g>
  </g>
 </g>
</svg>
