<?xml version="1.0" encoding="UTF-8"?>
<!DOCTYPE svg PUBLIC "-//W3C//DTD SVG 1.1//EN" "http://www.w3.org/Graphics/SVG/1.1/DTD/svg11.dtd">
<!-- Creator: CorelDRAW X7 -->
<svg xmlns="http://www.w3.org/2000/svg" xml:space="preserve" width="512px" height="512px" version="1.1" style="shape-rendering:geometricPrecision; text-rendering:geometricPrecision; image-rendering:optimizeQuality; fill-rule:evenodd; clip-rule:evenodd"
viewBox="0 0 51200 51200"
 xmlns:xlink="http://www.w3.org/1999/xlink">
 <defs>
  <style type="text/css">
   <![CDATA[
    .fil2 {fill:#FEFEFE}
    .fil1 {fill:#12B355}
    .fil0 {fill:#2ECC71}
   ]]>
  </style>
 </defs>
 <g id="Layer_x0020_1">
  <metadata id="CorelCorpID_0Corel-Layer"/>
  <g id="_518295216">
   <rect class="fil0" x="-1" width="51200" height="51200" rx="3412" ry="2792"/>
   <path class="fil1" d="M51200 33561l0 14227c0,1877 -1531,3412 -3401,3412l-30255 0 -3799 -6605 56 80 61 77 64 74 68 72 70 67 74 64 77 61 80 57 82 53 85 50 88 45 90 41 93 36 94 32 96 28 99 23 99 18 102 14 102 7 105 3 2102 0 -1670 -2901 -49 -83 -42 -87 -34 -91 -24 -95 -16 -98 -4 -102 0 -29819 4 -102 16 -98 24 -95 34 -91 42 -87 49 -82 57 -77 64 -71 71 -64 76 -57 82 -50 87 -42 91 -34 94 -24 98 -15 102 -6 13625 0 -1416 -2462 0 -2653 -9 -81 -23 -77 3033 5273 2621 0 101 6 98 15 95 24 91 34 87 42 81 50 77 57 70 64 64 71 57 77 50 82 2417 4200 0 -5143 -3 -105 -8 -103 -13 -102 -18 -100 -23 -99 -27 -96 -32 -95 -37 -92 -41 -91 13599 23639z"/>
   <path class="fil2" d="M15431 8764l6876 0 0 -2653c0,-224 183,-408 406,-408l5774 0c223,0 406,184 406,408l0 2653 6876 0c1119,0 2034,919 2034,2041l0 32651c0,1122 -915,2041 -2034,2041l-20338 0c-1119,0 -2034,-919 -2034,-2041l0 -32651c0,-1122 915,-2041 2034,-2041zm1253 2463l17832 0c545,0 991,447 991,994l0 29819c0,547 -446,994 -991,994l-17832 0c-545,0 -991,-447 -991,-994l0 -29819c0,-547 446,-994 991,-994z"/>
   <polygon class="fil2" points="16379,40267 21327,39240 24924,38493 24924,36687 29872,37715 34820,38742 29872,39770 26274,40517 26274,42323 21327,41295 "/>
   <polygon class="fil2" points="16379,34128 21327,33100 24924,32353 24924,30547 29872,31575 34820,32603 29872,33630 26274,34378 26274,36183 21327,35156 "/>
   <polygon class="fil2" points="16379,27893 21327,26866 24924,26119 24924,24313 29872,25341 34820,26368 29872,27396 26274,28143 26274,29949 21327,28921 "/>
   <polygon class="fil2" points="16379,21616 21327,20589 24924,19841 24924,18036 29872,19063 34820,20091 29872,21119 26274,21866 26274,23672 21327,22644 "/>
   <polygon class="fil2" points="16379,15437 21327,14409 24924,13662 24924,11857 29872,12884 34820,13912 29872,14940 26274,15687 26274,17493 21327,16465 "/>
  </g>
 </g>
</svg>
