<?xml version="1.0" encoding="UTF-8"?>
<!DOCTYPE svg PUBLIC "-//W3C//DTD SVG 1.1//EN" "http://www.w3.org/Graphics/SVG/1.1/DTD/svg11.dtd">
<!-- Creator: CorelDRAW X7 -->
<svg xmlns="http://www.w3.org/2000/svg" xml:space="preserve" width="72px" height="72px" version="1.1" style="shape-rendering:geometricPrecision; text-rendering:geometricPrecision; image-rendering:optimizeQuality; fill-rule:evenodd; clip-rule:evenodd"
viewBox="0 0 7200 7200"
 xmlns:xlink="http://www.w3.org/1999/xlink">
 <defs>
  <style type="text/css">
   <![CDATA[
    .fil2 {fill:#FEFEFE}
    .fil1 {fill:#12B355}
    .fil0 {fill:#2ECC71}
   ]]>
  </style>
 </defs>
 <g id="Layer_x0020_1">
  <metadata id="CorelCorpID_0Corel-Layer"/>
  <g id="_518277120">
   <rect class="fil0" width="7200" height="7200" rx="480" ry="393"/>
   <path class="fil1" d="M7200 4719l0 2001c0,264 -215,480 -478,480l-4255 0 -534 -929 8 11 8 11 9 11 10 10 10 9 10 9 11 9 11 8 12 7 12 7 12 7 13 5 13 6 13 4 14 4 13 3 14 3 15 2 14 1 15 0 295 0 -234 -408 -7 -11 -6 -13 -5 -13 -3 -13 -3 -14 0 -14 0 -4194 0 -14 3 -14 3 -13 5 -13 6 -12 7 -12 8 -10 9 -10 10 -9 10 -8 12 -7 12 -6 13 -5 13 -3 14 -3 14 0 1916 0 -199 -347 0 -373 -1 -11 -3 -11 426 742 369 0 14 0 14 3 13 3 13 5 12 6 12 7 10 8 10 9 9 10 8 10 7 12 340 591 0 -724 0 -14 -1 -15 -2 -14 -3 -14 -3 -14 -4 -14 -4 -13 -5 -13 -6 -13 1912 3324z"/>
   <path class="fil2" d="M2170 1232l967 0 0 -373c0,-31 26,-57 57,-57l812 0c31,0 57,26 57,57l0 373 967 0c157,0 286,130 286,287l0 4592c0,158 -129,287 -286,287l-2860 0c-157,0 -286,-129 -286,-287l0 -4592c0,-157 129,-287 286,-287zm176 347l2508 0c77,0 139,63 139,139l0 4194c0,77 -62,140 -139,140l-2508 0c-76,0 -139,-63 -139,-140l0 -4194c0,-76 63,-139 139,-139z"/>
   <polygon class="fil2" points="2303,5663 2999,5518 3505,5413 3505,5159 4201,5304 4897,5448 4201,5593 3695,5698 3695,5952 2999,5807 "/>
   <polygon class="fil2" points="2303,4799 2999,4655 3505,4550 3505,4296 4201,4440 4897,4585 4201,4729 3695,4834 3695,5088 2999,4944 "/>
   <polygon class="fil2" points="2303,3923 2999,3778 3505,3673 3505,3419 4201,3564 4897,3708 4201,3853 3695,3958 3695,4212 2999,4067 "/>
   <polygon class="fil2" points="2303,3040 2999,2895 3505,2790 3505,2536 4201,2681 4897,2825 4201,2970 3695,3075 3695,3329 2999,3184 "/>
   <polygon class="fil2" points="2303,2171 2999,2026 3505,1921 3505,1667 4201,1812 4897,1956 4201,2101 3695,2206 3695,2460 2999,2315 "/>
  </g>
 </g>
</svg>
