<?xml version="1.0" encoding="UTF-8"?>
<!DOCTYPE svg PUBLIC "-//W3C//DTD SVG 1.1//EN" "http://www.w3.org/Graphics/SVG/1.1/DTD/svg11.dtd">
<!-- Creator: CorelDRAW X7 -->
<svg xmlns="http://www.w3.org/2000/svg" xml:space="preserve" width="96px" height="96px" version="1.1" style="shape-rendering:geometricPrecision; text-rendering:geometricPrecision; image-rendering:optimizeQuality; fill-rule:evenodd; clip-rule:evenodd"
viewBox="0 0 9600 9600"
 xmlns:xlink="http://www.w3.org/1999/xlink">
 <defs>
  <style type="text/css">
   <![CDATA[
    .fil2 {fill:#FEFEFE}
    .fil1 {fill:#12B355}
    .fil0 {fill:#2ECC71}
   ]]>
  </style>
 </defs>
 <g id="Layer_x0020_1">
  <metadata id="CorelCorpID_0Corel-Layer"/>
  <g id="_518282808">
   <rect class="fil0" width="9600" height="9600" rx="640" ry="523"/>
   <path class="fil1" d="M9600 6293l0 2667c0,352 -287,640 -638,640l-5672 0 -713 -1238 11 15 11 14 12 14 13 13 13 13 14 12 14 11 15 11 16 10 16 9 16 9 17 8 17 6 18 6 18 6 19 4 18 3 19 3 20 1 19 1 394 0 -313 -544 -9 -16 -8 -16 -6 -17 -5 -18 -3 -18 -1 -19 0 -5592 1 -19 3 -18 5 -18 6 -17 8 -16 9 -16 11 -14 12 -13 13 -12 14 -11 16 -10 16 -7 17 -7 18 -4 18 -3 19 -1 2555 0 -266 -462 0 -497 -1 -16 -5 -14 569 989 492 0 19 1 18 3 18 4 17 7 16 7 15 10 15 11 13 12 12 13 11 14 9 16 453 787 0 -964 0 -20 -2 -19 -2 -19 -4 -19 -4 -19 -5 -18 -6 -17 -7 -18 -8 -17 2550 4433z"/>
   <path class="fil2" d="M2893 1643l1290 0 0 -497c0,-42 34,-77 76,-77l1082 0c42,0 77,35 77,77l0 497 1289 0c210,0 381,172 381,383l0 6122c0,211 -171,383 -381,383l-3814 0c-209,0 -381,-172 -381,-383l0 -6122c0,-211 172,-383 381,-383zm235 462l3344 0c102,0 186,84 186,186l0 5592c0,102 -84,186 -186,186l-3344 0c-102,0 -185,-84 -185,-186l0 -5592c0,-102 83,-186 185,-186z"/>
   <polygon class="fil2" points="3071,7550 3999,7358 4673,7217 4673,6879 5601,7072 6529,7264 5601,7457 4926,7597 4926,7936 3999,7743 "/>
   <polygon class="fil2" points="3071,6399 3999,6206 4673,6066 4673,5728 5601,5920 6529,6113 5601,6306 4926,6446 4926,6784 3999,6592 "/>
   <polygon class="fil2" points="3071,5230 3999,5037 4673,4897 4673,4559 5601,4751 6529,4944 5601,5137 4926,5277 4926,5615 3999,5423 "/>
   <polygon class="fil2" points="3071,4053 3999,3860 4673,3720 4673,3382 5601,3574 6529,3767 5601,3960 4926,4100 4926,4438 3999,4246 "/>
   <polygon class="fil2" points="3071,2894 3999,2702 4673,2562 4673,2223 5601,2416 6529,2608 5601,2801 4926,2941 4926,3280 3999,3087 "/>
  </g>
 </g>
</svg>
